<?xml version="1.0" standalone="no"?>
<!DOCTYPE svg PUBLIC "-//W3C//DTD SVG 20010904//EN"
 "http://www.w3.org/TR/2001/REC-SVG-20010904/DTD/svg10.dtd">
<svg version="1.0" xmlns="http://www.w3.org/2000/svg"
 width="200.000000pt" height="200.000000pt" viewBox="0 0 200.000000 200.000000"
 preserveAspectRatio="xMidYMid meet">

<g transform="translate(0.000000,200.000000) scale(0.100000,-0.100000)"
fill="#000000" stroke="none">
<path d="M863 1592 c-137 -56 -223 -183 -223 -330 0 -50 -3 -58 -46 -105 -57
-63 -84 -116 -84 -161 0 -30 5 -38 32 -52 37 -19 91 -14 186 17 l62 21 44 -22
c130 -63 292 -35 394 68 61 60 94 138 100 231 5 73 7 78 49 125 56 63 83 115
83 161 0 32 -4 38 -36 51 -41 17 -81 13 -182 -18 l-63 -19 -47 23 c-63 31
-206 36 -269 10z m245 -52 c78 -34 175 -152 159 -194 -5 -13 -140 -126 -151
-126 -4 0 -2 9 5 21 12 24 -1 45 -23 36 -20 -7 -64 -125 -51 -138 5 -5 41 -9
79 -7 56 2 69 6 72 21 3 13 -3 17 -27 17 -42 0 -39 10 12 42 24 15 52 37 62
48 26 28 35 25 35 -13 0 -90 -71 -196 -164 -245 -43 -22 -63 -26 -131 -26 -90
1 -134 16 -191 66 -42 37 -94 113 -94 138 0 17 38 56 108 110 l43 33 -3 -29
c-2 -20 2 -29 13 -32 11 -2 24 15 43 58 38 84 33 92 -56 88 -60 -2 -73 -6 -76
-20 -3 -14 3 -18 27 -18 42 0 39 -10 -12 -42 -24 -15 -52 -37 -62 -48 -30 -33
-38 -24 -32 34 6 63 25 103 74 157 86 95 219 121 341 69z m309 4 c8 -21 -6
-49 -58 -113 l-42 -53 -20 38 c-11 22 -33 55 -48 75 l-29 37 53 15 c71 21 136
22 144 1z m-687 -509 l20 -21 -53 -17 c-30 -9 -75 -17 -100 -17 -43 0 -47 2
-47 24 0 21 38 82 88 139 14 16 17 14 44 -35 16 -29 38 -62 48 -73z"/>
<path d="M100 531 l0 -201 25 0 24 0 3 138 3 137 26 -95 c23 -86 28 -95 51
-98 24 -3 27 2 47 80 36 137 40 135 40 -19 1 -136 2 -143 21 -143 19 0 20 7
20 200 l0 200 -29 0 c-28 0 -29 -2 -62 -125 -18 -68 -35 -123 -36 -121 -2 2
-18 57 -36 122 -33 118 -34 119 -65 122 l-32 3 0 -200z"/>
<path d="M446 624 c-13 -12 -16 -40 -16 -143 0 -85 4 -131 12 -139 7 -7 40
-12 80 -12 72 0 88 11 88 59 0 17 -6 21 -30 21 -24 0 -30 -4 -30 -21 0 -17 -5
-20 -32 -17 -32 3 -33 5 -33 48 l0 45 63 3 62 3 0 69 c0 60 -3 71 -22 84 -30
21 -121 21 -142 0z m104 -74 c0 -39 -1 -40 -35 -40 -34 0 -35 1 -35 40 0 39 1
40 35 40 34 0 35 -1 35 -40z"/>
<path d="M670 620 c-14 -14 -20 -33 -20 -68 0 -65 19 -90 73 -94 42 -3 42 -3
42 -43 0 -36 -3 -40 -27 -43 -23 -3 -28 1 -28 17 0 17 -6 21 -31 21 -29 0 -31
-2 -24 -27 4 -16 11 -34 17 -40 13 -17 120 -17 136 -1 16 16 15 120 0 141 -7
9 -31 17 -53 19 l-40 3 0 45 c0 35 4 45 17 48 12 2 21 -6 28 -22 7 -19 17 -26
35 -26 21 0 25 5 25 29 0 39 -32 61 -87 61 -30 0 -49 -6 -63 -20z"/>
<path d="M885 626 c-16 -11 -20 -26 -20 -74 0 -72 13 -90 68 -94 42 -3 42 -3
42 -43 0 -36 -3 -40 -27 -43 -23 -3 -28 1 -28 17 0 16 -6 21 -25 21 -21 0 -25
-5 -25 -28 0 -15 5 -33 12 -40 16 -16 120 -16 136 0 16 16 16 132 -1 146 -7 6
-30 12 -52 14 l-40 3 0 45 c0 38 3 45 20 45 11 0 24 -10 30 -22 6 -14 18 -23
32 -23 32 0 32 52 1 74 -28 20 -98 21 -123 2z"/>
<path d="M1097 622 c-14 -15 -17 -41 -17 -144 0 -91 4 -129 13 -136 7 -6 48
-11 90 -11 l77 0 0 155 0 154 -30 0 c-17 0 -30 -5 -30 -12 0 -9 -3 -9 -12 0
-18 18 -73 14 -91 -6z m101 -139 l-3 -108 -27 -3 -28 -3 0 110 0 111 30 0 31
0 -3 -107z"/>
<path d="M1332 624 c-21 -14 -22 -22 -22 -139 0 -146 6 -159 77 -153 41 3 43
2 43 -24 0 -27 -2 -28 -55 -28 -48 0 -55 -2 -55 -20 0 -18 7 -20 75 -20 63 0
76 3 85 19 6 12 10 95 10 200 l0 181 -30 0 c-17 0 -30 -5 -30 -12 0 -9 -3 -9
-12 0 -17 17 -59 15 -86 -4z m98 -138 c0 -96 -2 -105 -20 -111 -11 -3 -24 -3
-30 0 -6 3 -10 51 -10 111 l0 104 30 0 30 0 0 -104z"/>
<path d="M1568 629 c-16 -9 -18 -27 -18 -142 0 -90 4 -137 12 -145 13 -13 126
-16 145 -4 7 4 16 22 19 40 6 31 5 32 -25 32 -25 0 -31 -4 -31 -21 0 -17 -5
-20 -32 -17 -32 3 -33 5 -33 48 l0 45 63 3 62 3 0 64 c0 85 -18 105 -92 105
-29 0 -61 -5 -70 -11z m102 -79 c0 -39 -1 -40 -35 -40 -34 0 -35 1 -35 40 0
39 1 40 35 40 34 0 35 -1 35 -40z"/>
<path d="M1780 485 l0 -155 30 0 29 0 3 128 3 127 28 3 c21 3 27 9 27 28 0 26
-11 30 -40 14 -13 -7 -21 -7 -25 0 -3 5 -17 10 -31 10 l-24 0 0 -155z"/>
</g>
</svg>
